<svg xmlns="http://www.w3.org/2000/svg" width="898" height="138" viewBox="-24 -110 898 138"><rect x="-24" y="-110" width="898" height="138" fill="#FFFFFF"></rect><circle cx="45" cy="-41" r="41" fill="none" stroke="#E8001D" stroke-width="7" opacity="0.42"></circle><circle cx="45" cy="-41" r="19" fill="#E8001D"></circle><path d="M188-83Q196-83 202-79Q208-75 211-69Q215-63 215-55L215-55L215-54Q215-46 211-40Q208-34 202-30Q196-27 188-27L188-27L169-27L169 0L142 0L142-83L188-83ZM169-63L169-46L180-46Q184-46 186-48Q188-50 188-54L188-54L188-55Q188-59 186-61Q184-63 180-63L180-63L169-63ZM307-57Q307-50 303-44Q299-37 291-35L291-35L309 0L280 0L265-30L255-30L255 0L229 0L229-83L279-83Q288-83 294-79Q301-76 304-70Q307-64 307-57L307-57ZM280-56Q280-59 278-62Q276-64 273-64L273-64L255-64L255-48L273-48Q276-48 278-51Q280-53 280-56L280-56ZM322 0L322-83L393-83L393-63L349-63L349-51L387-51L387-32L349-32L349-20L394-20L394 0L322 0ZM444-83Q488-83 488-41L488-41Q488 0 444 0L444 0L409 0L409-83L444-83ZM435-63L435-20L444-20Q461-20 461-38L461-38L461-45Q461-63 444-63L444-63L435-63Z" fill="#0A0A0A"></path><path d="M541-84Q560-84 570-75Q581-66 581-49L581-49L556-49Q556-56 552-60Q548-64 541-64L541-64Q533-64 529-59Q526-54 526-45L526-45L526-37Q526-29 529-23Q533-18 541-18L541-18Q549-18 553-22Q557-26 557-33L557-33L581-33Q581-17 571-8Q560 1 541 1L541 1Q520 1 509-9Q499-20 499-41L499-41Q499-62 509-73Q520-84 541-84L541-84ZM679 0L651 0L647-12L618-12L615 0L588 0L618-83L649-83L679 0ZM633-60L624-30L642-30L633-60L633-60ZM723-84Q739-84 750-78Q760-71 760-59L760-59L760-57L735-57L735-58Q735-61 732-64Q730-66 724-66L724-66Q719-66 716-64Q714-63 714-61L714-61Q714-57 717-56Q721-54 730-53L730-53Q740-51 746-48Q753-46 757-41Q762-36 762-27L762-27Q762-13 752-6Q742 1 726 1L726 1Q707 1 696-5Q685-12 685-28L685-28L710-28Q710-22 713-20Q717-18 723-18L723-18Q729-18 732-19Q735-20 735-23L735-23Q735-26 731-28Q728-29 720-31L720-31Q709-33 703-35Q696-38 691-43Q686-48 686-58L686-58Q686-71 697-78Q707-84 723-84L723-84ZM850-61L823-61L823 0L796 0L796-61L769-61L769-83L850-83L850-61Z" fill="#E8001D"></path></svg>