<?xml version="1.0" standalone="no"?>
<!DOCTYPE svg PUBLIC "-//W3C//DTD SVG 20010904//EN"
 "http://www.w3.org/TR/2001/REC-SVG-20010904/DTD/svg10.dtd">
<svg version="1.0" xmlns="http://www.w3.org/2000/svg"
 width="200.000000pt" height="200.000000pt" viewBox="0 0 200.000000 200.000000"
 preserveAspectRatio="xMidYMid meet">

<g transform="translate(0.000000,200.000000) scale(0.100000,-0.100000)"
fill="#000000" stroke="none">
<path d="M895 1990 c-222 -24 -424 -120 -588 -279 -402 -390 -402 -1032 0
-1422 390 -379 996 -379 1386 0 402 390 402 1032 0 1422 -168 164 -363 254
-602 280 -95 10 -95 10 -196 -1z m-76 -274 c57 -57 102 -109 99 -116 -2 -7
-60 -47 -128 -90 l-125 -78 -18 21 c-32 37 -18 68 50 112 36 23 62 47 62 57 1
10 -21 40 -49 66 -27 27 -50 57 -50 68 0 24 27 64 43 64 7 0 59 -47 116 -104z
m222 -221 c170 -153 311 -365 350 -525 31 -128 3 -307 -71 -448 -71 -136 -165
-231 -301 -302 -93 -48 -138 -52 -176 -14 -22 23 -25 31 -20 77 3 29 16 100
30 159 41 174 53 280 38 336 -15 58 -32 83 -148 216 -106 121 -122 159 -104
240 6 28 23 64 36 82 23 30 296 214 318 214 5 0 27 -16 48 -35z"/>
<path d="M858 1325 c-144 -95 -144 -107 2 -275 162 -185 189 -267 151 -453
-25 -127 -25 -122 -5 -141 30 -31 59 -19 122 48 183 196 196 437 38 675 -58
87 -173 211 -194 210 -10 0 -61 -29 -114 -64z"/>
</g>
</svg>
