<?xml version="1.0" encoding="UTF-8"?>
<svg id="V_FINAL" xmlns="http://www.w3.org/2000/svg" viewBox="0 0 717.42 717.42">
  <defs>
    <style>
      .cls-1 {
        fill: #ff1256;
      }

      .cls-2 {
        fill: #fff;
      }

      .cls-3 {
        fill: none;
      }
    </style>
  </defs>
  <circle class="cls-1" cx="358.71" cy="358.71" r="358.71"/>
  <g>
    <g>
      <path class="cls-3" d="M459.96,380.95c-5.61,0-8.07-4.61-9.12-6.58-.66-1.24-1.52-2.96-2.61-5.27-1.79-3.77-3.97-8.55-6.29-13.66-.42,2.42-.85,4.91-1.29,7.47-5.05,29.29-11.33,65.75-13.8,77.28l-.06.3-.08.29c-1.11,3.89-4.55,6.55-8.56,6.62-.05,0-.1,0-.15,0-1.75,0-5.75-.55-8.27-5.14-.35-.63-.69-1.37-1.09-2.33-.55-1.33-1.23-3.18-2.09-5.65-1.52-4.39-3.39-10.17-5.38-16.29-2.16-6.68-5.43-16.76-7.51-22.42-5.28.04-10.47.08-15.56.11,18.34,31.78,24.26,69.76,15.7,106.22l-9.42,41.45c-4.08,17.9,17.27,30.46,31.09,18.53,38.33-33.06,86.75-96.25,69.36-180.94h-24.87Z"/>
      <path class="cls-3" d="M399.34,377.64h.16c6.14.19,8.47,5.65,9.47,7.99.72,1.7,1.61,4.04,2.71,7.16,1.13,3.23,2.4,7.02,3.7,11,2.5-14.18,5.28-30.3,7.63-43.94,2.72-15.8,5.08-29.45,6.06-34.69l.07-.36.1-.35c1.01-3.67,4.22-6.34,8-6.64,1.61-.13,5.67.05,8.63,4.43.4.59.82,1.31,1.33,2.25.73,1.35,1.67,3.24,2.87,5.76,2.15,4.51,4.87,10.5,7.5,16.29,2.47,5.43,5.58,12.29,7.61,16.5h15.07c-12.87-41.97-42.04-88.73-95.86-139.34-3.45-3.45-8.79-3.77-13.19-1.26-13.5,8.48-39.56,25.12-61.86,39.25-15.07,9.42-17.9,29.83-6.28,43.33l56.52,65.31c2.23,2.45,4.37,4.97,6.42,7.54,10.59-.09,21.68-.17,33.18-.25h.16Z"/>
      <path class="cls-2" d="M401.18,418c1.98,6.12,3.85,11.9,5.38,16.29.86,2.47,1.54,4.32,2.09,5.65.4.96.74,1.71,1.09,2.33,2.53,4.59,6.52,5.14,8.27,5.14.05,0,.1,0,.15,0,4.01-.07,7.45-2.73,8.56-6.62l.08-.29.06-.3c2.46-11.54,8.75-47.99,13.8-77.28.44-2.56.87-5.05,1.29-7.47,2.32,5.11,4.5,9.89,6.29,13.66,1.1,2.31,1.95,4.04,2.61,5.27,1.05,1.97,3.52,6.58,9.12,6.58h24.87c-1.2-5.86-2.72-11.83-4.58-17.9h-15.07c-2.03-4.21-5.15-11.07-7.61-16.5-2.63-5.79-5.35-11.79-7.5-16.29-1.2-2.53-2.14-4.41-2.87-5.76-.51-.94-.93-1.66-1.33-2.25-2.96-4.39-7.02-4.56-8.63-4.43-3.78.3-6.99,2.97-8,6.64l-.1.35-.07.36c-.99,5.25-3.34,18.89-6.06,34.69-2.35,13.63-5.13,29.76-7.63,43.94-1.31-3.98-2.57-7.77-3.7-11-1.1-3.12-1.98-5.47-2.71-7.16-1-2.33-3.33-7.8-9.47-7.98h-.16s-.16,0-.16,0c-11.5.08-22.59.16-33.18.25,4.5,5.66,8.54,11.61,12.11,17.8,5.09-.04,10.28-.08,15.56-.11,2.08,5.66,5.35,15.74,7.51,22.42Z"/>
      <path class="cls-2" d="M531.5,380.95c-1.18-6.01-2.65-11.98-4.37-17.9-25.42-87.68-105.59-163.9-132.08-188.33-5.02-4.4-12.56-5.34-18.21-1.57l-88.24,56.52c-38.31,24.18-45.85,77.25-15.7,111.16l33.14,37.57,15.67,17.77,5.2,5.89c21.04,23.24,29.2,54.95,22.29,85.41l.31-.63s-4.08,40.19-27.63,132.83c-6.59,26.06,18.84,48.67,43.65,39.25,169.25-64.37,169.25-236.45,169.25-236.45.63-13.95-.6-27.84-3.29-41.52ZM415.47,561.89c-13.82,11.93-35.17-.63-31.09-18.53l9.42-41.45c8.56-36.46,2.64-74.44-15.7-106.22-3.57-6.19-7.61-12.14-12.11-17.8-2.05-2.58-4.18-5.09-6.42-7.54l-56.52-65.31c-11.62-13.5-8.79-33.91,6.28-43.33,22.29-14.13,48.36-30.77,61.86-39.25,4.4-2.51,9.73-2.2,13.19,1.26,53.82,50.61,82.99,97.38,95.86,139.34,1.86,6.07,3.38,12.03,4.58,17.9,17.39,84.69-31.02,147.88-69.36,180.94Z"/>
    </g>
    <path class="cls-2" d="M364.41,132.92c-2.91-10.21-13.54-16.14-23.75-13.23-11.89,3.38-22.66,7.18-32.85,11.63l1.93-55.09c.37-10.61-7.93-19.52-18.54-19.89-10.62-.37-19.52,7.93-19.89,18.54l-2.09,59.48-59.5-27.36c-9.65-4.44-21.06-.21-25.5,9.44-4.44,9.65-.21,21.06,9.44,25.5l55.77,25.64c-10.54,8.69-19.86,17.88-28.13,27.74-6.83,8.13-5.77,20.26,2.36,27.09,3.6,3.02,7.99,4.5,12.35,4.5,5.48,0,10.93-2.34,14.73-6.86,12.28-14.63,27.61-27.66,46.85-39.84.06-.03.11-.07.17-.11,16.36-10.34,32.84-17.56,53.41-23.41,10.21-2.91,16.14-13.54,13.23-23.75Z"/>
  </g>
</svg>